<svg width="48" height="48" viewBox="0 0 48 48" fill="none" xmlns="http://www.w3.org/2000/svg">
<path d="M16.5 4.5V10.5" stroke="black" stroke-width="3" stroke-linecap="round" stroke-linejoin="round"/>
<path d="M22.5 4.5V10.5" stroke="black" stroke-width="3" stroke-linecap="round" stroke-linejoin="round"/>
<path d="M28.5 4.5V10.5" stroke="#D015FF" stroke-width="3" stroke-linecap="round" stroke-linejoin="round"/>
<g filter="url(#filter0_d_2_408)">
<path d="M15.6181 40.5007C12.7474 39.183 10.3153 37.0691 8.61037 34.4101C6.90547 31.7511 5.99949 28.6586 6 25.5V16.5H39V25.5C39.0005 28.6587 38.0945 31.7511 36.3896 34.4101C34.6847 37.0692 32.2525 39.1831 29.3818 40.5008" fill="white"/>
<path d="M15.6181 40.5007C12.7474 39.183 10.3153 37.0691 8.61037 34.4101C6.90547 31.7511 5.99949 28.6586 6 25.5V16.5H39V25.5C39.0005 28.6587 38.0945 31.7511 36.3896 34.4101C34.6847 37.0692 32.2525 39.1831 29.3818 40.5008" stroke="black" stroke-width="3" stroke-linecap="round" stroke-linejoin="round"/>
</g>
<path d="M6 40.5H39" stroke="black" stroke-width="3" stroke-linecap="round" stroke-linejoin="round"/>
<path d="M39 16.5C40.5913 16.5 42.1174 17.1321 43.2426 18.2574C44.3679 19.3826 45 20.9087 45 22.5V24C45 25.5913 44.3679 27.1174 43.2426 28.2426C42.1174 29.3679 40.5913 30 39 30H38.3665" stroke="black" stroke-width="3" stroke-linecap="round" stroke-linejoin="round"/>
<defs>
<filter id="filter0_d_2_408" x="1.5" y="14" width="42" height="33.0011" filterUnits="userSpaceOnUse" color-interpolation-filters="sRGB">
<feFlood flood-opacity="0" result="BackgroundImageFix"/>
<feColorMatrix in="SourceAlpha" type="matrix" values="0 0 0 0 0 0 0 0 0 0 0 0 0 0 0 0 0 0 127 0" result="hardAlpha"/>
<feOffset dy="2"/>
<feGaussianBlur stdDeviation="1.5"/>
<feComposite in2="hardAlpha" operator="out"/>
<feColorMatrix type="matrix" values="0 0 0 0 0.815686 0 0 0 0 0.0823529 0 0 0 0 1 0 0 0 0.5 0"/>
<feBlend mode="normal" in2="BackgroundImageFix" result="effect1_dropShadow_2_408"/>
<feBlend mode="normal" in="SourceGraphic" in2="effect1_dropShadow_2_408" result="shape"/>
</filter>
</defs>
</svg>
