<svg width="48" height="50" viewBox="0 0 48 50" fill="none" xmlns="http://www.w3.org/2000/svg">
<path d="M15 12V7.5C15 7.10218 15.158 6.72064 15.4393 6.43934C15.7206 6.15804 16.1022 6 16.5 6H31.5L39 13.5V34.5C39 34.8978 38.842 35.2794 38.5607 35.5607C38.2794 35.842 37.8978 36 37.5 36H33" fill="#D015FF"/>
<path d="M15 12V7.5C15 7.10218 15.158 6.72064 15.4393 6.43934C15.7206 6.15804 16.1022 6 16.5 6H31.5L39 13.5V34.5C39 34.8978 38.842 35.2794 38.5607 35.5607C38.2794 35.842 37.8978 36 37.5 36H33" stroke="black" stroke-width="3" stroke-linecap="round" stroke-linejoin="round"/>
<g filter="url(#filter0_d_2_343)">
<path d="M31.5 42H10.5C10.1022 42 9.72064 41.842 9.43934 41.5607C9.15804 41.2794 9 40.8978 9 40.5V13.5C9 13.1022 9.15804 12.7206 9.43934 12.4393C9.72064 12.158 10.1022 12 10.5 12H25.5L33 19.5V40.5C33 40.8978 32.842 41.2794 32.5607 41.5607C32.2794 41.842 31.8978 42 31.5 42Z" fill="white"/>
<path d="M31.5 42H10.5C10.1022 42 9.72064 41.842 9.43934 41.5607C9.15804 41.2794 9 40.8978 9 40.5V13.5C9 13.1022 9.15804 12.7206 9.43934 12.4393C9.72064 12.158 10.1022 12 10.5 12H25.5L33 19.5V40.5C33 40.8978 32.842 41.2794 32.5607 41.5607C32.2794 41.842 31.8978 42 31.5 42Z" stroke="black" stroke-width="3" stroke-linecap="round" stroke-linejoin="round"/>
</g>
<path d="M16.5 28.5H25.5" stroke="black" stroke-width="3" stroke-linecap="round" stroke-linejoin="round"/>
<path d="M16.5 34.5H25.5" stroke="black" stroke-width="3" stroke-linecap="round" stroke-linejoin="round"/>
<defs>
<filter id="filter0_d_2_343" x="4.5" y="10.5" width="33" height="39" filterUnits="userSpaceOnUse" color-interpolation-filters="sRGB">
<feFlood flood-opacity="0" result="BackgroundImageFix"/>
<feColorMatrix in="SourceAlpha" type="matrix" values="0 0 0 0 0 0 0 0 0 0 0 0 0 0 0 0 0 0 127 0" result="hardAlpha"/>
<feOffset dy="3"/>
<feGaussianBlur stdDeviation="1.5"/>
<feComposite in2="hardAlpha" operator="out"/>
<feColorMatrix type="matrix" values="0 0 0 0 0.815686 0 0 0 0 0.0823529 0 0 0 0 1 0 0 0 0.5 0"/>
<feBlend mode="normal" in2="BackgroundImageFix" result="effect1_dropShadow_2_343"/>
<feBlend mode="normal" in="SourceGraphic" in2="effect1_dropShadow_2_343" result="shape"/>
</filter>
</defs>
</svg>
