<svg width="59" height="51" viewBox="0 0 59 51" fill="none" xmlns="http://www.w3.org/2000/svg">
<g filter="url(#filter0_d_2_352)">
<path d="M29.5 37.5C32.5 37.5 37.4605 37.4662 43.1668 34.1716C48.8732 30.8771 50.7197 26.7499 51.3106 24.637C51.3637 24.446 51.3781 24.2463 51.3531 24.0497C51.3281 23.853 51.2642 23.6633 51.1651 23.4917C51.066 23.32 50.9337 23.1698 50.7758 23.0498C50.618 22.9298 50.4379 22.8425 50.246 22.7929C48.8619 22.4382 46.4717 22.1175 43.3967 22.8469" fill="white"/>
<path d="M29.5 37.5C32.5 37.5 37.4605 37.4662 43.1668 34.1716C48.8732 30.8771 50.7197 26.7499 51.3106 24.637C51.3637 24.446 51.3781 24.2463 51.3531 24.0497C51.3281 23.853 51.2642 23.6633 51.1651 23.4917C51.066 23.32 50.9337 23.1698 50.7758 23.0498C50.618 22.9298 50.4379 22.8425 50.246 22.7929C48.8619 22.4382 46.4717 22.1175 43.3967 22.8469" stroke="black" stroke-width="3" stroke-linecap="round" stroke-linejoin="round"/>
</g>
<g filter="url(#filter1_d_2_352)">
<path d="M15.6028 22.8469C12.5281 22.1175 10.138 22.4382 8.754 22.7929C8.56207 22.8425 8.38194 22.9298 8.22413 23.0498C8.06631 23.1698 7.93399 23.32 7.83487 23.4917C7.73575 23.6633 7.67184 23.853 7.64685 24.0497C7.62186 24.2463 7.63631 24.446 7.68934 24.637C8.28023 26.7499 10.1268 30.8771 15.8331 34.1716C21.5395 37.4662 26.5 37.5 29.5 37.5" fill="white"/>
<path d="M15.6028 22.8469C12.5281 22.1175 10.138 22.4382 8.754 22.7929C8.56207 22.8425 8.38194 22.9298 8.22413 23.0498C8.06631 23.1698 7.93399 23.32 7.83487 23.4917C7.73575 23.6633 7.67184 23.853 7.64685 24.0497C7.62186 24.2463 7.63631 24.446 7.68934 24.637C8.28023 26.7499 10.1268 30.8771 15.8331 34.1716C21.5395 37.4662 26.5 37.5 29.5 37.5" stroke="black" stroke-width="3" stroke-linecap="round" stroke-linejoin="round"/>
</g>
<path d="M29.5 37.5C31.7482 37.0218 37.8119 33.6034 41.4462 27.3086C45.0804 21.0139 44.1853 15.9875 43.4753 13.8015C43.3611 13.4487 43.1201 13.1509 42.799 12.9655C42.4779 12.7801 42.0994 12.7203 41.7368 12.7977C39.5871 13.2851 37.5765 14.2556 35.8575 15.6356" fill="#D015FF"/>
<path d="M29.5 37.5C31.7482 37.0218 37.8119 33.6034 41.4462 27.3086C45.0804 21.0139 44.1853 15.9875 43.4753 13.8015C43.3611 13.4487 43.1201 13.1509 42.799 12.9655C42.4779 12.7801 42.0994 12.7203 41.7368 12.7977C39.5871 13.2851 37.5765 14.2556 35.8575 15.6356" stroke="black" stroke-width="3" stroke-linecap="round" stroke-linejoin="round"/>
<path d="M23.1424 15.6355C21.4235 14.2556 19.4129 13.2851 17.2632 12.7977C16.9006 12.7203 16.5221 12.7801 16.201 12.9655C15.8799 13.1509 15.6389 13.4487 15.5247 13.8015C14.8147 15.9875 13.9196 21.0139 17.5539 27.3086C21.1881 33.6034 27.2518 37.0218 29.5 37.5" fill="#D015FF"/>
<path d="M23.1424 15.6355C21.4235 14.2556 19.4129 13.2851 17.2632 12.7977C16.9006 12.7203 16.5221 12.7801 16.201 12.9655C15.8799 13.1509 15.6389 13.4487 15.5247 13.8015C14.8147 15.9875 13.9196 21.0139 17.5539 27.3086C21.1881 33.6034 27.2518 37.0218 29.5 37.5" stroke="black" stroke-width="3" stroke-linecap="round" stroke-linejoin="round"/>
<g filter="url(#filter2_d_2_352)">
<path d="M29.5 37.5C29.5 37.5 37 33.4091 37 22.5C37 13.9529 32.3962 9.59115 30.4025 8.10303C30.142 7.90804 29.8254 7.80266 29.5 7.80266C29.1746 7.80266 28.858 7.90804 28.5975 8.10303C26.6038 9.59115 22 13.9529 22 22.5C22 33.4091 29.5 37.5 29.5 37.5Z" fill="white"/>
<path d="M29.5 37.5C29.5 37.5 37 33.4091 37 22.5C37 13.9529 32.3962 9.59115 30.4025 8.10303C30.142 7.90804 29.8254 7.80266 29.5 7.80266C29.1746 7.80266 28.858 7.90804 28.5975 8.10303C26.6038 9.59115 22 13.9529 22 22.5C22 33.4091 29.5 37.5 29.5 37.5Z" stroke="black" stroke-width="3" stroke-linecap="round" stroke-linejoin="round"/>
</g>
<defs>
<filter id="filter0_d_2_352" x="22" y="17.9074" width="36.865" height="30.0926" filterUnits="userSpaceOnUse" color-interpolation-filters="sRGB">
<feFlood flood-opacity="0" result="BackgroundImageFix"/>
<feColorMatrix in="SourceAlpha" type="matrix" values="0 0 0 0 0 0 0 0 0 0 0 0 0 0 0 0 0 0 127 0" result="hardAlpha"/>
<feOffset dy="3"/>
<feGaussianBlur stdDeviation="3"/>
<feComposite in2="hardAlpha" operator="out"/>
<feColorMatrix type="matrix" values="0 0 0 0 0.815686 0 0 0 0 0.0823529 0 0 0 0 1 0 0 0 0.5 0"/>
<feBlend mode="normal" in2="BackgroundImageFix" result="effect1_dropShadow_2_352"/>
<feBlend mode="normal" in="SourceGraphic" in2="effect1_dropShadow_2_352" result="shape"/>
</filter>
<filter id="filter1_d_2_352" x="0.134949" y="17.9074" width="36.865" height="30.0926" filterUnits="userSpaceOnUse" color-interpolation-filters="sRGB">
<feFlood flood-opacity="0" result="BackgroundImageFix"/>
<feColorMatrix in="SourceAlpha" type="matrix" values="0 0 0 0 0 0 0 0 0 0 0 0 0 0 0 0 0 0 127 0" result="hardAlpha"/>
<feOffset dy="3"/>
<feGaussianBlur stdDeviation="3"/>
<feComposite in2="hardAlpha" operator="out"/>
<feColorMatrix type="matrix" values="0 0 0 0 0.815686 0 0 0 0 0.0823529 0 0 0 0 1 0 0 0 0.5 0"/>
<feBlend mode="normal" in2="BackgroundImageFix" result="effect1_dropShadow_2_352"/>
<feBlend mode="normal" in="SourceGraphic" in2="effect1_dropShadow_2_352" result="shape"/>
</filter>
<filter id="filter2_d_2_352" x="14.5" y="6.30266" width="30" height="44.6973" filterUnits="userSpaceOnUse" color-interpolation-filters="sRGB">
<feFlood flood-opacity="0" result="BackgroundImageFix"/>
<feColorMatrix in="SourceAlpha" type="matrix" values="0 0 0 0 0 0 0 0 0 0 0 0 0 0 0 0 0 0 127 0" result="hardAlpha"/>
<feOffset dy="6"/>
<feGaussianBlur stdDeviation="3"/>
<feComposite in2="hardAlpha" operator="out"/>
<feColorMatrix type="matrix" values="0 0 0 0 0 0 0 0 0 0 0 0 0 0 0 0 0 0 0.25 0"/>
<feBlend mode="normal" in2="BackgroundImageFix" result="effect1_dropShadow_2_352"/>
<feBlend mode="normal" in="SourceGraphic" in2="effect1_dropShadow_2_352" result="shape"/>
</filter>
</defs>
</svg>
