<svg width="51" height="49" viewBox="0 0 51 49" fill="none" xmlns="http://www.w3.org/2000/svg">
<g filter="url(#filter0_d_42_200)">
<path d="M6.3001 27.2908C5.52076 23.0732 6.27059 18.7159 8.41492 15.0014C10.5593 11.2869 13.9576 8.45859 17.9997 7.02435V20.536L6.3001 27.2908Z" fill="white"/>
<path d="M6.3001 27.2908C5.52076 23.0732 6.27059 18.7159 8.41492 15.0014C10.5593 11.2869 13.9576 8.45859 17.9997 7.02435V20.536L6.3001 27.2908Z" stroke="black" stroke-width="3" stroke-linecap="round" stroke-linejoin="round"/>
</g>
<path d="M24 24V6C30.75 6 37.5 9.75 39.75 15C27.75 21.75 24 24 24 24Z" fill="#D015FF" stroke="black" stroke-width="3"/>
<g filter="url(#filter1_d_42_200)">
<path d="M34.2715 39.2715C43.1199 34.1628 46.1516 22.8484 41.0429 14L9 32.5C14.1086 41.3484 25.4231 44.3801 34.2715 39.2715Z" fill="white"/>
<path d="M40.6526 15.3801C44.8036 23.6064 41.8509 33.7408 33.7715 38.4054C25.692 43.0701 15.439 40.56 10.3904 32.852L40.6526 15.3801Z" stroke="black" stroke-width="2"/>
</g>
<defs>
<filter id="filter0_d_42_200" x="1.49994" y="5.52435" width="20.9998" height="29.2664" filterUnits="userSpaceOnUse" color-interpolation-filters="sRGB">
<feFlood flood-opacity="0" result="BackgroundImageFix"/>
<feColorMatrix in="SourceAlpha" type="matrix" values="0 0 0 0 0 0 0 0 0 0 0 0 0 0 0 0 0 0 127 0" result="hardAlpha"/>
<feOffset dy="3"/>
<feGaussianBlur stdDeviation="1.5"/>
<feComposite in2="hardAlpha" operator="out"/>
<feColorMatrix type="matrix" values="0 0 0 0 0.815686 0 0 0 0 0.0823529 0 0 0 0 1 0 0 0 0.5 0"/>
<feBlend mode="normal" in2="BackgroundImageFix" result="effect1_dropShadow_42_200"/>
<feBlend mode="normal" in="SourceGraphic" in2="effect1_dropShadow_42_200" result="shape"/>
</filter>
<filter id="filter1_d_42_200" x="7" y="14" width="38.5246" height="31.7531" filterUnits="userSpaceOnUse" color-interpolation-filters="sRGB">
<feFlood flood-opacity="0" result="BackgroundImageFix"/>
<feColorMatrix in="SourceAlpha" type="matrix" values="0 0 0 0 0 0 0 0 0 0 0 0 0 0 0 0 0 0 127 0" result="hardAlpha"/>
<feOffset dy="2"/>
<feGaussianBlur stdDeviation="1"/>
<feComposite in2="hardAlpha" operator="out"/>
<feColorMatrix type="matrix" values="0 0 0 0 0.815686 0 0 0 0 0.0823529 0 0 0 0 1 0 0 0 0.5 0"/>
<feBlend mode="normal" in2="BackgroundImageFix" result="effect1_dropShadow_42_200"/>
<feBlend mode="normal" in="SourceGraphic" in2="effect1_dropShadow_42_200" result="shape"/>
</filter>
</defs>
</svg>
