<svg width="49" height="48" viewBox="0 0 49 48" fill="none" xmlns="http://www.w3.org/2000/svg">
<path d="M24.5 7.5V40.5" stroke="black" stroke-width="3" stroke-linecap="round" stroke-linejoin="round"/>
<path d="M29 40.5H20" stroke="black" stroke-width="3" stroke-linecap="round" stroke-linejoin="round"/>
<path d="M38 16.5L11 10.5" stroke="black" stroke-width="3" stroke-linecap="round" stroke-linejoin="round"/>
<g filter="url(#filter0_d_2_401)">
<path d="M44 31.5C44 34.8137 40.25 36 38 36C35.75 36 32 34.8137 32 31.5L38 16.5L44 31.5Z" fill="#D015FF"/>
<path d="M44 31.5C44 34.8137 40.25 36 38 36C35.75 36 32 34.8137 32 31.5L38 16.5L44 31.5Z" stroke="black" stroke-width="3" stroke-linecap="round" stroke-linejoin="round"/>
</g>
<g filter="url(#filter1_d_2_401)">
<path d="M17 25.5C17 28.8137 13.25 30 11 30C8.75 30 5 28.8137 5 25.5L11 10.5L17 25.5Z" fill="white"/>
<path d="M17 25.5C17 28.8137 13.25 30 11 30C8.75 30 5 28.8137 5 25.5L11 10.5L17 25.5Z" stroke="black" stroke-width="3" stroke-linecap="round" stroke-linejoin="round"/>
</g>
<defs>
<filter id="filter0_d_2_401" x="27.5" y="15" width="21" height="28.5" filterUnits="userSpaceOnUse" color-interpolation-filters="sRGB">
<feFlood flood-opacity="0" result="BackgroundImageFix"/>
<feColorMatrix in="SourceAlpha" type="matrix" values="0 0 0 0 0 0 0 0 0 0 0 0 0 0 0 0 0 0 127 0" result="hardAlpha"/>
<feOffset dy="3"/>
<feGaussianBlur stdDeviation="1.5"/>
<feComposite in2="hardAlpha" operator="out"/>
<feColorMatrix type="matrix" values="0 0 0 0 0.815686 0 0 0 0 0.0823529 0 0 0 0 1 0 0 0 0.5 0"/>
<feBlend mode="normal" in2="BackgroundImageFix" result="effect1_dropShadow_2_401"/>
<feBlend mode="normal" in="SourceGraphic" in2="effect1_dropShadow_2_401" result="shape"/>
</filter>
<filter id="filter1_d_2_401" x="0.5" y="9" width="21" height="28.5" filterUnits="userSpaceOnUse" color-interpolation-filters="sRGB">
<feFlood flood-opacity="0" result="BackgroundImageFix"/>
<feColorMatrix in="SourceAlpha" type="matrix" values="0 0 0 0 0 0 0 0 0 0 0 0 0 0 0 0 0 0 127 0" result="hardAlpha"/>
<feOffset dy="3"/>
<feGaussianBlur stdDeviation="1.5"/>
<feComposite in2="hardAlpha" operator="out"/>
<feColorMatrix type="matrix" values="0 0 0 0 0.815686 0 0 0 0 0.0823529 0 0 0 0 1 0 0 0 0.5 0"/>
<feBlend mode="normal" in2="BackgroundImageFix" result="effect1_dropShadow_2_401"/>
<feBlend mode="normal" in="SourceGraphic" in2="effect1_dropShadow_2_401" result="shape"/>
</filter>
</defs>
</svg>
