<svg width="48" height="48" viewBox="0 0 48 48" fill="none" xmlns="http://www.w3.org/2000/svg">
<path d="M5.81042 40.4982C7.6546 37.3062 10.3063 34.6556 13.4992 32.8128C16.6921 30.9701 20.3137 30 24.0002 30C27.6867 30 31.3083 30.9702 34.5011 32.813C37.694 34.6559 40.3456 37.3065 42.1898 40.4986" fill="#D015FF"/>
<path d="M5.81042 40.4982C7.6546 37.3062 10.3063 34.6556 13.4992 32.8128C16.6921 30.9701 20.3137 30 24.0002 30C27.6867 30 31.3083 30.9702 34.5011 32.813C37.694 34.6559 40.3457 37.3065 42.1898 40.4986" stroke="black" stroke-width="3" stroke-linecap="round" stroke-linejoin="round"/>
<g filter="url(#filter0_d_2_339)">
<path d="M24 30C30.6274 30 36 24.6274 36 18C36 11.3726 30.6274 6 24 6C17.3726 6 12 11.3726 12 18C12 24.6274 17.3726 30 24 30Z" fill="white"/>
<path d="M24 30C30.6274 30 36 24.6274 36 18C36 11.3726 30.6274 6 24 6C17.3726 6 12 11.3726 12 18C12 24.6274 17.3726 30 24 30Z" stroke="black" stroke-width="3" stroke-miterlimit="10"/>
</g>
<defs>
<filter id="filter0_d_2_339" x="7.5" y="4.5" width="33" height="33" filterUnits="userSpaceOnUse" color-interpolation-filters="sRGB">
<feFlood flood-opacity="0" result="BackgroundImageFix"/>
<feColorMatrix in="SourceAlpha" type="matrix" values="0 0 0 0 0 0 0 0 0 0 0 0 0 0 0 0 0 0 127 0" result="hardAlpha"/>
<feOffset dy="3"/>
<feGaussianBlur stdDeviation="1.5"/>
<feComposite in2="hardAlpha" operator="out"/>
<feColorMatrix type="matrix" values="0 0 0 0 0.815686 0 0 0 0 0.0823529 0 0 0 0 1 0 0 0 0.5 0"/>
<feBlend mode="normal" in2="BackgroundImageFix" result="effect1_dropShadow_2_339"/>
<feBlend mode="normal" in="SourceGraphic" in2="effect1_dropShadow_2_339" result="shape"/>
</filter>
</defs>
</svg>
